<?xml version="1.0" encoding="UTF-8"?>
<svg id="_レイヤー_2" data-name="レイヤー_2" xmlns="http://www.w3.org/2000/svg" viewBox="0 0 615.93 549.56">
  <defs>
    <style>
      .cls-1 {
        fill: #34d5dc;
      }

      .cls-2 {
        stroke-width: 40.31px;
      }

      .cls-2, .cls-3, .cls-4, .cls-5, .cls-6, .cls-7 {
        fill: none;
        stroke: #34d5dc;
        stroke-miterlimit: 10;
      }

      .cls-3 {
        stroke-width: 18.08px;
      }

      .cls-4 {
        stroke-width: 40.93px;
      }

      .cls-5 {
        stroke-width: 25.38px;
      }

      .cls-6 {
        stroke-width: 17.81px;
      }

      .cls-7 {
        stroke-width: 25px;
      }
    </style>
  </defs>
  <g id="_レイヤー_1-2" data-name="レイヤー_1">
    <g>
      <g>
        <polyline class="cls-6" points="273.52 28.64 245.78 51.48 269.16 99.05 244.53 153.77 261.99 190.4 233.62 251.3 237.67 288.41 266.04 305.54 249.83 330.75 236.43 367.39 265.11 390.23 254.51 432.57 256.69 456.36 285.06 486.81 278.51 504.89 283.81 526.3"/>
        <path class="cls-7" d="M217.92,17.22l-58.05,51.86,31.61,43.3-32.25,56.14-33.22,13.32,36.44,43.77,22.58,16.65-18.06,42.82-36.12,19.98,25.8,44.25,6.45,7.14,18.71,27.12-48.38,45.67,5.81,39.49s29.99,21.41,30.64,23.31,29.67,50.91,29.67,50.91"/>
        <polyline class="cls-2" points="101.27 533.43 54.7 480.15 36.91 468.73 52.61 387.37 71.44 359.3 46.85 328.38 30.11 314.1 56.27 280.32 84 255.11 35.86 200.87 24.34 180.41 61.5 135.21 89.63 116.66 70.78 74.31 45.95 44.34 77.72 15.32"/>
        <polyline class="cls-3" points="334.06 28.64 362.67 51.48 338.56 99.05 363.95 153.77 345.95 190.4 375.2 251.3 371.02 288.41 341.77 305.54 358.49 330.75 372.31 367.39 342.74 390.23 353.67 432.57 351.42 456.36 322.17 486.81 328.92 504.89 323.45 526.3"/>
        <path class="cls-5" d="M391.39,17.22l59.85,51.86-32.59,43.3,33.25,56.14,34.25,13.32-37.58,43.77-23.28,16.65,18.62,42.82,37.24,19.98-26.6,44.25-6.65,7.14-19.29,27.12,49.88,45.67-5.99,39.49s-30.92,21.41-31.59,23.31-30.59,50.91-30.59,50.91"/>
        <polyline class="cls-4" points="511.66 533.43 559.67 480.15 578.02 468.73 561.83 387.37 542.41 359.3 567.77 328.38 585.03 314.1 558.05 280.32 529.46 255.11 579.09 200.87 590.98 180.41 552.66 135.21 523.66 116.66 543.1 74.31 568.7 44.34 535.94 15.32"/>
      </g>
      <path class="cls-1" d="M289.18,145.2l7.61-20.93,19.67,26.01-3.81,25.69s-8.25,13.96-7.61,15.22,20.62,37.74,20.62,37.74l-1.59,22.84-9.83,30.45-.63,34.57,12.05,38.7-10.47,12.69,4.76,52.97-15.22,21.89-6.66-55.82s1.59-21.25.63-21.25-12.05-6.34-12.05-6.34l11.42-31.72,3.17-29.18-10.47-24.42-22.52-25.06,23.47-36.16-7.3-45.36-2.54-12.69,7.3-9.83Z"/>
    </g>
  </g>
</svg>