<svg xmlns="http://www.w3.org/2000/svg" width="65" height="65" viewBox="0 0 65 65">
  <defs>
    <style>
      .cls-1 {
        fill: #420b65;
        fill-rule: evenodd;
      }
    </style>
  </defs>
  <path id="charges_othersupport_features06" class="cls-1" d="M307.059,2632.68a1.245,1.245,0,0,1,1.689,0l7.88,6.08a1.45,1.45,0,0,1,.292,1.93l-2.251,3.67a18.228,18.228,0,0,1,6.281,4.39,20.44,20.44,0,0,1,0,27.74,17.7,17.7,0,0,1-26.116,0,20.5,20.5,0,0,1,0-27.74,18.311,18.311,0,0,1,6.305-4.39l-2.3-3.72a1.442,1.442,0,0,1,.337-1.88l7.88-6.08h0Zm2.161,3.8h0v6.56a18.922,18.922,0,0,1,2.837.46l2.027-3.27-4.864-3.75h0Zm-5.492,7.02h0a19.715,19.715,0,0,1,2.858-.46v-6.56l-4.862,3.75,2,3.27h0Zm14.138,8.54h0a13.5,13.5,0,0,0-19.925,0,15.6,15.6,0,0,0,0,21.17,13.5,13.5,0,0,0,19.925,0,15.655,15.655,0,0,0,0-21.17h0Zm-11.415-27.91h0a1.309,1.309,0,1,1,2.613,0v3.86a1.31,1.31,0,1,1-2.613,0v-3.86h0Zm12.293,4.06h0l-2.566,2.72a1.49,1.49,0,0,0,0,1.97,1.265,1.265,0,0,0,1.869,0l2.566-2.72a1.445,1.445,0,0,0,0-1.97,1.281,1.281,0,0,0-1.869,0h0Zm-23.685,2.31h0l2.544,2.74a1.265,1.265,0,0,0,1.869,0,1.443,1.443,0,0,0,0-1.97l-2.566-2.73a1.255,1.255,0,0,0-1.847,0,1.432,1.432,0,0,0,0,1.96h0Z" transform="translate(-275.406 -2620)"/>
</svg>
