<svg xmlns="http://www.w3.org/2000/svg" width="65" height="65" viewBox="0 0 65 65">
  <defs>
    <style>
      .cls-1 {
        fill: #420b65;
        fill-rule: evenodd;
      }
    </style>
  </defs>
  <path id="charges_othersupport_features02" class="cls-1" d="M335.037,2679.38h0a20.75,20.75,0,0,1-3.13-6.3,25.379,25.379,0,0,1-1.356-7.44v-11.25a23.16,23.16,0,0,0-14.324-21.3,23.308,23.308,0,0,0-4.043-1.22l6.557-6.54a2.313,2.313,0,0,0,.716-1.67,2.4,2.4,0,0,0-2.392-2.4h-19.4a2.385,2.385,0,0,0-1.7,4.07l6.583,6.54a22.616,22.616,0,0,0-11.563,6.23,22.929,22.929,0,0,0-6.829,16.29v11.25a25.277,25.277,0,0,1-1.332,7.44,22.1,22.1,0,0,1-3.032,6.19,2.346,2.346,0,0,0-.641,1.6,2.4,2.4,0,0,0,2.416,2.38h51.6a2.5,2.5,0,0,0,1.5-.52,2.406,2.406,0,0,0,.369-3.35h0Zm-23.766-53.35h0l-3.919,3.89-3.9-3.89h7.815Zm-25.492,52.45h0a29.961,29.961,0,0,0,1.578-3.94,29.249,29.249,0,0,0,1.6-8.9v-11.25a18.166,18.166,0,0,1,1.381-6.97,18.516,18.516,0,0,1,4.019-5.95,18.322,18.322,0,0,1,5.965-3.99,18.1,18.1,0,0,1,7.028-1.32H307.4a18.283,18.283,0,0,1,18.367,18.23v11.25a29.28,29.28,0,0,0,1.6,8.9,30.056,30.056,0,0,0,1.554,3.94H285.779Zm29.037-28.61a4.339,4.339,0,0,0-4.345-4.32v-2.04a1.408,1.408,0,0,0-2.816,0v2.04h-0.7v-2.04a1.408,1.408,0,0,0-2.816,0v2.04H301.29a1.4,1.4,0,1,0,0,2.8h1.117v8.43H301.29a1.406,1.406,0,0,0-1.407,1.4,0.016,0.016,0,0,0,0,.01c0,0.01,0,.01,0,0.02a1.406,1.406,0,0,0,1.407,1.4h1.117v8.43H301.29a1.4,1.4,0,1,0,0,2.8h2.846v3.11a1.408,1.408,0,0,0,2.816,0v-3.11h0.7v3.11a1.408,1.408,0,0,0,2.816,0v-3.11h0.069a4.279,4.279,0,0,0,4.276-4.26v-5.47a4.283,4.283,0,0,0-1.12-2.89,4.116,4.116,0,0,0,1.12-2.87v-5.48Zm-9.593-1.52h5.248a1.508,1.508,0,0,1,1.53,1.52v5.48a1.462,1.462,0,0,1-1.324,1.44c-0.069,0-.137-0.01-0.206-0.01h-5.248v-8.43ZM312,2666.58a1.493,1.493,0,0,1-1.461,1.46h-5.317v-8.43h5.317c0.034,0,.069-0.01.1-0.01a1.507,1.507,0,0,1,1.357,1.51v5.47Z" transform="translate(-274.844 -2619.75)"/>
</svg>
