<svg xmlns="http://www.w3.org/2000/svg" width="65" height="65" viewBox="0 0 65 65">
  <defs>
    <style>
      .cls-1 {
        fill: #420b65;
        fill-rule: evenodd;
      }
    </style>
  </defs>
  <path id="charges_othersupport_features05" class="cls-1" d="M332.739,2630.81H283.256a2.05,2.05,0,0,0-2.068,2.04v27.38a2.056,2.056,0,0,0,2.068,2.04h1.193c0.111,0,.218-0.01.319-0.02a7.872,7.872,0,0,0,2.093,3.34,7.023,7.023,0,0,0-1.389.55,6.431,6.431,0,0,0-3.176,3.82l-0.021.09a6.336,6.336,0,0,0-.26,1.78v0.83a1.236,1.236,0,0,0,1.241,1.23h49.483a1.232,1.232,0,0,0,1.236-1.23v-0.83a6.191,6.191,0,0,0-.2-1.57,5.968,5.968,0,0,0-.583-1.47,5.812,5.812,0,0,0-.917-1.29,5.98,5.98,0,0,0-1.219-1.05l-0.048-.03a6.27,6.27,0,0,0-1.67-.77l-0.2-.06a8.226,8.226,0,0,0,1.113-1.32,7.61,7.61,0,0,0,.96-2h1.532a2.054,2.054,0,0,0,2.058-2.04v-27.38a2.048,2.048,0,0,0-2.058-2.04h0Zm-3.1,37.65h0l0.048,0.03a3.992,3.992,0,0,1,.747.63v0.01a3.438,3.438,0,0,1,.578.81,4.145,4.145,0,0,1,.36.92h0.006a5.732,5.732,0,0,1,.095.58h-46.97a4.958,4.958,0,0,1,.127-0.69l0.033-.09a4.032,4.032,0,0,1,.5-1.06,4.113,4.113,0,0,1,1.462-1.31,4.189,4.189,0,0,1,1.915-.47h7.588a4.235,4.235,0,0,1,1.177.17h0a3.749,3.749,0,0,1,1.067.5,3.8,3.8,0,0,1,.445.34,2.365,2.365,0,0,1,.339.34,1.817,1.817,0,0,0,.2.2,1.242,1.242,0,0,0,1.738-.14,4.005,4.005,0,0,1,1.39-1.04,4.088,4.088,0,0,1,1.7-.37h7.588a4.265,4.265,0,0,1,1.182.17,4.068,4.068,0,0,1,1.512.84,3.075,3.075,0,0,1,.344.34,1.2,1.2,0,0,0,.191.2,1.256,1.256,0,0,0,1.75-.14,3.938,3.938,0,0,1,1.384-1.04,4.122,4.122,0,0,1,1.7-.37h7.584a4.236,4.236,0,0,1,1.181.17h0.011a3.7,3.7,0,0,1,1.013.47h0Zm-42.76-8.53h0a5.443,5.443,0,0,1,.105-1.06,5.7,5.7,0,0,1,.3-1.01,5.5,5.5,0,0,1,5.052-3.32,5.43,5.43,0,0,1,5.447,5.39,5.431,5.431,0,0,1-5.447,5.4,5.51,5.51,0,0,1-2.126-.42,5.434,5.434,0,0,1-3.335-4.98h0Zm10.945,5.66h0a7.562,7.562,0,0,0,1.113-1.32,7.867,7.867,0,0,0,1.225-3.09,7.928,7.928,0,0,0,1.225,3.09,7.805,7.805,0,0,0,1.124,1.32,7.348,7.348,0,0,0-1.049.38,6.583,6.583,0,0,0-1.3.78c-0.132-.09-0.27-0.2-0.414-0.29a6.426,6.426,0,0,0-1.729-.81l-0.2-.06h0Zm4.714-5.66h0a6.35,6.35,0,0,1,.1-1.06,5.32,5.32,0,0,1,.313-1.01,5.47,5.47,0,0,1,10.5,2.07,5.379,5.379,0,0,1-.912,2.99,5.574,5.574,0,0,1-2.344,1.96l-0.08.03a5.506,5.506,0,0,1-2.126.42,5.582,5.582,0,0,1-2.121-.42,5.419,5.419,0,0,1-2.412-1.99,5.332,5.332,0,0,1-.912-2.99h0Zm10.933,5.66h0a7.433,7.433,0,0,0,1.113-1.32,7.766,7.766,0,0,0,1.236-3.09,7.7,7.7,0,0,0,1.22,3.09,7.805,7.805,0,0,0,1.124,1.32,7.7,7.7,0,0,0-1.055.38,6.748,6.748,0,0,0-1.289.78c-0.127-.09-0.27-0.2-0.414-0.29a6.428,6.428,0,0,0-1.727-.81l-0.208-.06h0Zm4.714-5.66h0a5.67,5.67,0,0,1,.1-1.01l0.011-.05a5.452,5.452,0,1,1,9.894,4.05,5.571,5.571,0,0,1-2.343,1.96l-0.075.03a5.593,5.593,0,0,1-4.253,0h0a5.472,5.472,0,0,1-3.325-4.98h0Zm12.488-3.61h0a7.742,7.742,0,0,0-1.437-1.93,7.963,7.963,0,0,0-12.923,2.54,7.468,7.468,0,0,0-.44,1.47l-0.01.01-0.043.27a7.953,7.953,0,0,0-15.154-1.75,7.176,7.176,0,0,0-.451,1.47l-0.053.28a7.953,7.953,0,0,0-14.853-2.38v-21.41h45.364v21.43h0Z" transform="translate(-275.5 -2619.845)"/>
</svg>
