<svg xmlns="http://www.w3.org/2000/svg" viewBox="0 0 177.07 53.13"><defs><style>.cls-1{fill:#fff;}</style></defs><g id="レイヤー_2" data-name="レイヤー 2"><g id="レイヤー_1-2" data-name="レイヤー 1"><path class="cls-1" d="M88.91,28.28a3,3,0,1,0-3-3A3,3,0,0,0,88.91,28.28Z"/><path class="cls-1" d="M50.63,12.45c4,1.53,8.11,3.14,12.45,4.53,3.79,1.13,8,2.2,12.4,1.49a10.54,10.54,0,0,0,5.81-3.08,12.63,12.63,0,0,0,2.87-5.34c-2.54,3.07-5.72,5-9,4.6a16.64,16.64,0,0,1-4.93-1.19,47.33,47.33,0,0,1-5-2.12c-6.7-3.18-13.64-7-21.41-9.21s-16.42-3-24.41-.66A38.18,38.18,0,0,0,0,15.05c6.74-4,13.56-7.13,20.65-8A47.87,47.87,0,0,1,41.42,9.2a18.83,18.83,0,0,1,4.1,3.72A25,25,0,0,1,50.7,24.53c.72,4.32,1.16,8.95-.37,12.77a12.17,12.17,0,0,1-9.2,7.53,18.85,18.85,0,0,1-12.63-2,14.1,14.1,0,0,1-7.39-10.21c-.44-4.35.1-9.28,3.05-12.72s8-4.61,12.55-4.1c-4.5-.75-9.71,0-13.13,3.56s-4.26,8.69-4,13.44A15.91,15.91,0,0,0,27.4,44.71a21.29,21.29,0,0,0,14.24,2.84,15.31,15.31,0,0,0,11.78-9A20.12,20.12,0,0,0,55,31.17a45.72,45.72,0,0,0-.42-7.29A30.67,30.67,0,0,0,50.63,12.45Z"/><path class="cls-1" d="M140.35,15.8c4.56-.51,9.58.63,12.56,4.1s3.49,8.37,3,12.72a14.07,14.07,0,0,1-7.39,10.21,18.84,18.84,0,0,1-12.63,2,12.17,12.17,0,0,1-9.2-7.53c-1.53-3.82-1.08-8.45-.36-12.77a24.92,24.92,0,0,1,5.18-11.61,18.83,18.83,0,0,1,4.1-3.72A47.85,47.85,0,0,1,156.42,7c7.08.92,13.91,4.1,20.65,8.05A38.21,38.21,0,0,0,157.63,1.47c-8-2.37-16.72-1.67-24.4.66s-14.72,6-21.42,9.21a46.32,46.32,0,0,1-5,2.12,16.63,16.63,0,0,1-4.94,1.19c-3.26.42-6.44-1.53-9-4.6a12.63,12.63,0,0,0,2.87,5.34,10.57,10.57,0,0,0,5.81,3.08c4.45.71,8.62-.36,12.4-1.49,4.34-1.39,8.44-3,12.46-4.53a30.87,30.87,0,0,0-4,11.43,45.71,45.71,0,0,0-.41,7.29,19.73,19.73,0,0,0,1.58,7.42,15.3,15.3,0,0,0,11.77,9,21.31,21.31,0,0,0,14.25-2.84,15.94,15.94,0,0,0,7.86-11.91c.21-4.75-.65-9.87-4-13.44S144.86,15.05,140.35,15.8Z"/><path class="cls-1" d="M102.39,26A16.62,16.62,0,0,0,88.53,33.4,16.62,16.62,0,0,0,74.67,26c-9.49,0-18.48,9.11-12.36,18.85s14.36-3.37,14.36-3.37-8.37,5-10.74,1.25-3.37-12.36,8.49-12.36S88.53,53.13,88.53,53.13s2.25-22.72,14.11-22.72,10.87,8.61,8.49,12.36-10.73-1.25-10.73-1.25,8.24,13.11,14.36,3.37S111.88,26,102.39,26Z"/></g></g></svg>