<svg xmlns="http://www.w3.org/2000/svg" width="65" height="65" viewBox="0 0 65 65">
  <defs>
    <style>
      .cls-1 {
        fill: #420b65;
        fill-rule: evenodd;
      }
    </style>
  </defs>
  <path id="charges_othersupport_features04" class="cls-1" d="M281.167,2665.32h11.939a1.334,1.334,0,0,1,1.288,1.36v11.77a1.337,1.337,0,0,1-1.288,1.37H281.167a1.318,1.318,0,0,1-1.265-1.37v-11.77a1.316,1.316,0,0,1,1.265-1.36h0Zm31.452-31.52h0a49.831,49.831,0,0,1-10.259,8.91,46.338,46.338,0,0,1-17.9,6.96,2.148,2.148,0,0,1-2.422-1.91,2.272,2.272,0,0,1,1.789-2.6,42.391,42.391,0,0,0,16.348-6.36,45,45,0,0,0,10.105-9.01H301.4a2.285,2.285,0,0,1,0-4.56h13.335a2.211,2.211,0,0,1,2.118,2.28v14.36a2.123,2.123,0,1,1-4.234,0v-8.07h0Zm10.367,0.49h11.939a1.324,1.324,0,0,1,1.267,1.36v42.8a1.32,1.32,0,0,1-1.267,1.37H322.986a1.32,1.32,0,0,1-1.266-1.37v-42.8a1.323,1.323,0,0,1,1.266-1.36h0Zm10.652,2.73h-9.386v40.06h9.386v-40.06h0Zm-31.562,12.78h0a1.319,1.319,0,0,0-1.265,1.37v27.28a1.319,1.319,0,0,0,1.265,1.37h11.94a1.32,1.32,0,0,0,1.266-1.37v-27.28a1.32,1.32,0,0,0-1.266-1.37h-11.94Zm10.674,2.74h0v24.54h-9.385v-24.54h9.385Zm-20.91,15.51h-9.385v9.03h9.385v-9.03h0Z" transform="translate(-275.547 -2620.015)"/>
</svg>
