<svg xmlns="http://www.w3.org/2000/svg" width="65" height="65" viewBox="0 0 65 65">
  <defs>
    <style>
      .cls-1 {
        fill: #420b65;
        fill-rule: evenodd;
      }
    </style>
  </defs>
  <path id="charges_othersupport_features03" class="cls-1" d="M310.362,2637.71a6.855,6.855,0,1,0-6.828-6.86A6.853,6.853,0,0,0,310.362,2637.71Zm0-10.58a3.725,3.725,0,1,1-3.712,3.72A3.722,3.722,0,0,1,310.362,2627.13Zm6.009,10.96h-8.422a6.283,6.283,0,0,0-4.177,1.61c-1.285,1.22-3.785,3.61-6.086,5.92a4.917,4.917,0,0,0-1.5,4.92,4.292,4.292,0,0,0,7.2,1.72c-0.005,4.76-.105,22.69-0.11,23.6a5.456,5.456,0,0,0,1.244,3.75,3.976,3.976,0,0,0,2.973,1.22,4.421,4.421,0,0,0,3.316-1.41,3.977,3.977,0,0,0,2.909,1.25,5.229,5.229,0,0,0,4.949-5.36v-5.73a3.884,3.884,0,0,0,1.552.33c2.239,0,4.507-2.05,4.507-5.98v-16.51C324.726,2643.02,321.153,2638.09,316.371,2638.09Zm5.239,25.84c0,1.97-.813,2.85-1.391,2.85-0.657,0-1.354-1-1.354-2.85v-16.91a1.558,1.558,0,1,0-3.116,0v16.91a9.655,9.655,0,0,0,.076,1.19h-0.273v10.19a2.147,2.147,0,0,1-1.834,2.24c-0.658,0-1.132-.74-1.306-1.95v-10.69a1.558,1.558,0,1,0-3.115,0v9.61h-0.074a11,11,0,0,0,.07,1.26c-0.1.46-.5,1.92-1.8,1.92a0.851,0.851,0,0,1-.7-0.23,2.386,2.386,0,0,1-.407-1.47l0-.09c0-.2.111-19.81,0.111-24.02,0-.48,0-0.91.008-1.29,0.021-1.94.033-3.11-1.221-3.56s-1.97.41-3.378,2.15l-0.487.6a1.432,1.432,0,0,1-1.366.64,1.178,1.178,0,0,1-.895-0.8,1.906,1.906,0,0,1,.726-1.8c2.273-2.28,4.749-4.65,6.022-5.86a3.21,3.21,0,0,1,2.038-.75h8.422c2.9,0,5.239,3.39,5.239,6.2v16.51Zm-25-10.38a5.289,5.289,0,0,0-3.755,1.5,5.931,5.931,0,0,0-1.661,4.38v18.94a1.558,1.558,0,1,0,3.115,0v-18.94a2.952,2.952,0,0,1,.731-2.15,2.21,2.21,0,0,1,1.57-.61,2.62,2.62,0,0,1,2.637,2.76,1.558,1.558,0,1,0,3.116,0A5.693,5.693,0,0,0,296.612,2653.55Z" transform="translate(-275.453 -2619.905)"/>
</svg>
