<svg xmlns="http://www.w3.org/2000/svg" width="551" height="148" viewBox="0 0 551 148">
  <defs>
    <style>
      .cls-1 {
        fill: #5e005e;
        fill-rule: evenodd;
      }
    </style>
  </defs>
  <path id="シェイプ_316_1" data-name="シェイプ 316 1" class="cls-1" d="M260.4,1319.03c38.88-.69,57.018,8.96,66.849,36.44,11.535,32.25,3.841,86.82-16.206,101.22-16.093,11.56-39.584,10.89-59.759,4.05-5.775-1.96-13.424-1.34-16.206-6.08h6.077c2.846,2.51,5.285.92,10.129,2.03,21.141,4.82,41.286-1.16,50.643-14.17,21.693-30.16,12.853-95.36-14.18-111.34-12.373-7.32-31.8-3.98-47.6-3.04-0.338-.67-0.676-1.35-1.013-2.02h1.013v-1.02C244.893,1324.73,258.3,1322.49,260.4,1319.03Zm137.75,0c36.5-.6,55.425,6.62,66.849,30.37,13.465,27.98,7.834,79.74-7.09,100.2-5.074,6.96-13.12,10.01-22.283,13.16-4.046,1.39-26.671,6.55-34.437,3.04v-2.03c-7.391-3.36-15.563-.6-21.271-5.06-0.814-1.03-.359-0.27-1.013-2.02h8.1c8.068,5.55,25.942.71,32.412-2.03,26.24-11.09,37.484-53.84,26.335-91.09-10.249-34.25-28.083-37.32-69.888-36.44v-1.01h1.013C381.612,1323.02,395.135,1323.73,398.149,1319.03Zm-165.1,9.11H237.1v1.01h-2.026v1.02C232.285,1330.66,233.882,1329.6,233.051,1328.14Zm9.116,4.05c2.363,0.34,4.727.67,7.09,1.01,4.353,8.36,2.149,27.58,2.026,39.48,2.681,4.2,1.013,16.08,1.013,22.27,0,15.73,3.154,46.33-1.013,58.7-1.777-.64-0.984-0.19-2.026-1.01-18.914-8.96-15.193-55.95-15.193-85.02,0-9.65-2.491-27.65,1.013-32.39,1.034-.82.278-0.36,2.026-1.02C238.124,1333.51,241.153,1332.91,242.167,1332.19Zm144.84,121.46h-3.038c-4.492-6.84-10.552-13.32-13.168-22.27q-0.505-7.08-1.012-14.17c-4.618-20.81-.983-58.25-1.013-81.98l3.038-1.02c3.8-2.69,8.241-1.46,13.168-1.01v1.01h1.012C390.311,1372.45,387.051,1412.93,387.007,1453.65ZM780,1336.24v20.24H477.153c-2.92-5.44-6.868-12.78-8.1-19.23,7.663-2.51,20.925-1.01,30.386-1.01H780Zm-276.513,40.49h20.257v2.02h-1.012c-1.21.79-4.877,1.21-6.078,2.02-3.733,5.84-1.148,24.17-1.012,32.39h-1.013v1.02c-1.777-.64-0.984-0.2-2.026-1.02-3.733-5.83-1.149-24.16-1.013-32.39a25.563,25.563,0,0,0-8.1-1.01v-3.03Zm28.36,0c2.1,0.37,1.95.24,3.039,1.01,1.869,3.09.107,11.1,2.026,14.17,3.191,2.09,12.224,1.14,17.219,1.01v-2.02c1.771-2.68,1.14-9.82,1.012-14.17h3.039c0.639,1.77.195,0.98,1.013,2.02-1.415,7.88,1.463,28.01-1.013,33.4v1.01h-1.013v1.02c-1.023,1-1-1-1.013-1.02-2.017-3.33.042-11.87-2.025-15.18-3.365-2.2-13.025-1.14-18.232-1.01-0.639,1.78-.2.98-1.013,2.02a40.3,40.3,0,0,1,0,15.19H532.86v-1.02C529.938,1408.58,531.732,1384.39,531.847,1376.73Zm49.631,0h4.051c2.859,5.25,16.161,33.53,15.193,36.43v1.02H598.7c-5.9-11.22-4.129-13.83-22.283-13.16-1.035.81-.278,0.36-2.026,1.01a110.817,110.817,0,0,1-6.077,12.15h-2.026v-5.06C573.177,1401.54,577.276,1386.33,581.478,1376.73Zm27.347,0c2.1,0.37,1.95.24,3.039,1.01,2.867,4.49,1.128,27.92,1.013,35.42h-1.013v1.02h-2.026c-3.934-7.54-2.149-24.48-2.026-35.43C608.627,1377.72,608.172,1378.47,608.825,1376.73Zm32.412,37.45H624.018c-3.076-9.16-1.1-25.36-1.012-36.44h1.012v-1.01c1.777,0.63.984,0.19,2.026,1.01,3.623,5.65,1.149,23.37,1.013,31.38h1.013v1.01c4.627-.11,10.025-0.09,13.167,1.01v3.04Zm21.27-37.45h4.052c5.1,11.21,13.778,23.93,15.193,37.45h-2.026c-1.894-3.6-4.055-10.52-8.1-12.15-2.371-1.7-11.806-1.67-14.18,0-6.019,2.47-3.821,9.71-10.129,12.15v-5.06C654.187,1401.55,658.324,1386.29,662.507,1376.73Zm56.721,0v36.43a14.064,14.064,0,0,1-4.052,1.02c-2.559-5.33-16.853-28.27-21.27-30.37v2.03c-2.145,4.15.2,21.8-1.013,28.34h-2.025v-1.02c-1.852-1.58-1.414-.89-2.026-4.04,3.909-6.13.679-27.03,1.013-32.39h5.064c2.461,5.45,15.291,25.52,20.257,27.32v-1.01c1.625-3.21.1-18.46,0-25.3h1.013v-1.01h3.039Zm11.141,0c20.4-.5,20.742,1.41,30.387,11.13,2.008,21.16-7.345,27.04-30.387,26.32C727.663,1406.42,727.7,1384.49,730.369,1376.73Zm4.052,3.03c-2.549,7.56-1.1,21-1.013,30.37h2.026c7.276,5.06,19.521-3.66,21.27-8.1v-13.16c-0.815-1.03-.359-0.28-1.013-2.02C749.063,1382.42,746.677,1379.64,734.421,1379.76Zm-152.943,3.04c-0.841,5.81-3.432,7.68-4.052,14.17h12.155c-0.366-5.89-2.948-9.78-5.064-14.17h-3.039Zm76.978,14.17H669.6a14.2,14.2,0,0,0,1.013-4.05c-2.321-2.48-3.588-6.88-5.064-10.12-1.777.64-.984,0.19-2.026,1.01C660.669,1386.83,658.836,1391.58,658.456,1396.97Zm-383.877-13.16a51.364,51.364,0,0,1,11.142,1.01,18.067,18.067,0,0,0,3.038,4.05c-0.639,1.78-.195.99-1.013,2.03-2.178,3.52-5.24,7.19-10.128,8.09-2.788-4.09-6.938-5.35-8.1-11.13A25.242,25.242,0,0,0,274.579,1383.81Zm137.75,0c3.322-.12,7.277-0.24,9.116,1.01,3.608,1.13,4.366,1.95,5.064,6.08-4.1,2.83-5.088,7.2-11.141,8.09q-4.052-4.545-8.1-9.11,0.505-1.515,1.013-3.03A9.431,9.431,0,0,0,412.329,1383.81ZM780,1436.44v19.24H467.024a14.387,14.387,0,0,1-1.013-4.05c4.039-2.99,6.328-13.63,9.116-15.19H712.138C734.19,1436.44,761.28,1435.26,780,1436.44Zm-551,16.2c2.1,0.38,1.949.24,3.039,1.01C229.936,1453.28,230.089,1453.41,229,1452.64Zm142.814,2.02,6.078,1.02v1.01h-6.078v-2.03Z" transform="translate(-229 -1319)"/>
</svg>
