<svg xmlns="http://www.w3.org/2000/svg" width="30" height="30" viewBox="0 0 30 30">
  <defs>
    <style>
      .cls-1 {
        fill: #540063;
        fill-rule: evenodd;
      }
    </style>
  </defs>
  <path id="flow_icons04" class="cls-1" d="M1052.78,3006.01a0.613,0.613,0,0,0-.59.63v1.17a0.6,0.6,0,1,0,1.2,0v-1.17a0.617,0.617,0,0,0-.61-0.63h0Zm3.86-6.44h-3.83a0.622,0.622,0,0,0-.6.63v4.01a0.622,0.622,0,0,0,.6.63h3.83a0.622,0.622,0,0,0,.6-0.63v-4.01a0.622,0.622,0,0,0-.6-0.63h0Zm-0.6,4.01h-2.63v-2.75h2.63v2.75h0Zm0.07,2.43h0a0.607,0.607,0,0,0-.59.63v1.17a0.6,0.6,0,0,0,.59.62,0.615,0.615,0,0,0,.61-0.62v-1.17a0.623,0.623,0,0,0-.61-0.63h0Zm-1.66,0h0a0.6,0.6,0,0,0-.59.63v1.17a0.592,0.592,0,0,0,.59.62,0.606,0.606,0,0,0,.6-0.62v-1.17a0.615,0.615,0,0,0-.6-0.63h0Zm9.64,0h0a0.607,0.607,0,0,0-.59.63v1.17a0.6,0.6,0,0,0,.59.62,0.615,0.615,0,0,0,.61-0.62v-1.17a0.623,0.623,0,0,0-.61-0.63h0Zm1.67,0h0a0.615,0.615,0,0,0-.6.63v1.17a0.6,0.6,0,1,0,1.2,0v-1.17a0.615,0.615,0,0,0-.6-0.63h0Zm1.66,0h0a0.607,0.607,0,0,0-.59.63v1.17a0.6,0.6,0,0,0,.59.62,0.606,0.606,0,0,0,.6-0.62v-1.17a0.615,0.615,0,0,0-.6-0.63h0Zm2.47-11h0V2995a1.925,1.925,0,0,0-1.45-.68h-1.27l-4.12-7.48a0.8,0.8,0,0,0-.13-0.21,2.089,2.089,0,0,0-1.13-.91,1.815,1.815,0,0,0-1.49.12,0.585,0.585,0,0,0-.17.1l-14.54,8.8-0.06.03a2.086,2.086,0,0,0-.93,1.36h0a2.388,2.388,0,0,0,.25,1.6l4.63,8.42v2.63a2.371,2.371,0,0,0,.56,1.53,1.925,1.925,0,0,0,1.45.68h16.95a1.925,1.925,0,0,0,1.45-.68,2.363,2.363,0,0,0,.55-1.53v-12.25a2.316,2.316,0,0,0-.55-1.52h0Zm-20.41,1.52h0v5.45l-2.9-5.29a0.194,0.194,0,0,1-.03-0.12h-0.03l0.03-.01v0l0.03-.02,14.6-8.84h0a0.159,0.159,0,0,1,.1.08l0.02,0.04,3.57,6.5h-13.38a2.137,2.137,0,0,0-2.01,2.21h0Zm18.98,12.25h0a0.169,0.169,0,0,1-.04.12h-16.91a0.169,0.169,0,0,1-.04-0.12v-12.27l0.01-.01v-0.04l0.01-.01h0v-0.02l0.01-.01h0v-0.01h16.92a0.214,0.214,0,0,1,.04.12v12.25h0Zm-6.69-2.77h0a0.615,0.615,0,0,0-.6.63v1.17a0.6,0.6,0,1,0,1.2,0v-1.17a0.615,0.615,0,0,0-.6-0.63h0Zm-1.66,0h0a0.623,0.623,0,0,0-.61.63v1.17a0.615,0.615,0,0,0,.61.62,0.6,0.6,0,0,0,.59-0.62v-1.17a0.607,0.607,0,0,0-.59-0.63h0Zm-1.67,0h0a0.615,0.615,0,0,0-.6.63v1.17a0.606,0.606,0,0,0,.6.62,0.6,0.6,0,0,0,.6-0.62v-1.17a0.609,0.609,0,0,0-.6-0.63h0Z" transform="translate(-1042.5 -2983.31)"/>
</svg>
