<svg xmlns="http://www.w3.org/2000/svg" width="110" height="110" viewBox="0 0 110 110">
  <defs>
    <style>
      .cls-1 {
        fill: #fff;
        fill-rule: evenodd;
      }
    </style>
  </defs>
  <path id="flow_local_support01" class="cls-1" d="M596.719,4956.76a5.3,5.3,0,0,1-6.392-2.49l-12.245-21.64a5.29,5.29,0,0,1,1.139-6.74,5.314,5.314,0,0,0,1.134-6.76l-6.319-11.17c-1.3-2.3-3.626-2.42-5.156-.25l-5.49,7.74a13.012,13.012,0,0,0-1.87,8.64s1.485,7.75,11.746,25.87S589.1,4972.9,589.1,4972.9a13.286,13.286,0,0,0,8.442,2.79l9.459-.7c2.648-.21,3.733-2.25,2.432-4.56l-6.325-11.17A5.323,5.323,0,0,0,596.719,4956.76Zm-19.827-55.37c-1.381.79-1.451,3.31-.142,5.62l5.572,9.84c1.312,2.29,3.453,3.45,4.768,2.53,1.318-.9,1.329-3.53.024-5.83l-5.322-9.4C580.483,4901.85,578.287,4900.61,576.892,4901.39Zm34.761,67.21c1.308,2.3,3.512,3.54,4.9,2.76s1.443-3.31.138-5.62l-5.322-9.4c-1.305-2.3-3.564-3.65-5.022-2.99s-1.585,3.09-.284,5.38Zm-7.624-39.58v-2.83q1.192-3.7,6.5-7.24l0.691-.46a17.166,17.166,0,0,0,3.139-2.49,3.47,3.47,0,0,0,.954-2.33,2.952,2.952,0,0,0-.691-1.96,3.758,3.758,0,0,0-3.076-1.24,7.424,7.424,0,0,0-5.486,2.55l-2.16-1.99a7.826,7.826,0,0,1,2.034-1.75,10.639,10.639,0,0,1,5.625-1.53,8.988,8.988,0,0,1,4.18.91,5.872,5.872,0,0,1,2.361,2.18,5.543,5.543,0,0,1,.766,2.83,5.425,5.425,0,0,1-1.52,3.69,22.069,22.069,0,0,1-3.8,3.03l-0.8.54a28.969,28.969,0,0,0-3.892,2.96,7.051,7.051,0,0,0-1.532,2.12H619.07v3.01H604.029Zm27.821-20.94h3.9v13.47h3.729v2.67h-3.729v4.8h-3.139v-4.8H622.183v-2.65Zm0.766,13.47v-5.96c0-1.37.059-2.92,0.176-4.66h-0.1a25.759,25.759,0,0,1-2.085,3.8l-4.77,6.82h6.779Zm10.509-14.49h3.389v9.38a5.836,5.836,0,0,1,5.123-2.86,5.086,5.086,0,0,1,4.243,1.86,6.528,6.528,0,0,1,1.105,4.12v9.46H653.6V4920a4.552,4.552,0,0,0-.628-2.68,2.562,2.562,0,0,0-2.234-.97,3.836,3.836,0,0,0-2.788,1.31,6.168,6.168,0,0,0-1.431,2.44v8.92h-3.389v-21.96Z" transform="translate(-554.188 -4883.425)"/>
</svg>
