<svg xmlns="http://www.w3.org/2000/svg" width="110" height="110" viewBox="0 0 110 110">
  <defs>
    <style>
      .cls-1 {
        fill: #fff;
        fill-rule: evenodd;
      }
    </style>
  </defs>
  <path id="flow_local_support03" class="cls-1" d="M1346.4,4929.32c0-13.21-7.6-18.86-7.6-18.86v-13.59h-9.92v13.62s-7.61,6.27-7.61,18.83c0,10.92-.33,57.86-0.33,57.86h25.79S1346.4,4937.6,1346.4,4929.32Zm-3.94-1.95v15.46h-6.33l-0.08-29.01A18.082,18.082,0,0,1,1342.46,4927.37Zm1.5,56.74h-20.07v-2.49h20.07v2.49Zm-3.85-96.11h-12.9v6.19h12.9V4888Zm-39.93,70.5c13.25-2.19,11.38-27.86,11.38-27.86h-26.64s-1.73,25.53,11.42,27.85v21.16l-9.32,6.82h22.48l-9.32-6.82V4958.5Zm8.04-20.82c0,12.28-7.18,17.36-7.18,17.36l-0.11-17.4S1302.47,4937.68,1308.22,4937.68Z" transform="translate(-1260.78 -4882.595)"/>
</svg>
