<svg xmlns="http://www.w3.org/2000/svg" width="110" height="110" viewBox="0 0 110 110">
  <defs>
    <style>
      .cls-1 {
        fill: #fff;
        fill-rule: evenodd;
      }
    </style>
  </defs>
  <path id="flow_local_support02" class="cls-1" d="M958.953,4959.35a10.911,10.911,0,0,0-.377-1.22,16.829,16.829,0,0,0-1.333-3.05l-0.023-.03a16.974,16.974,0,0,0-2.89-3.82,14.482,14.482,0,0,0-1.741-1.42,16.835,16.835,0,0,0-10.1-3.38H928a16.964,16.964,0,0,0-17,16.95V4986h9.954v-23.45h3.46V4986h21.372v-23.45h3.459V4986h10.24v-22.62a15.868,15.868,0,0,0-.278-2.87C959.138,4960.12,959.054,4959.73,958.953,4959.35Zm-23.707-15.24a11.225,11.225,0,1,0-11.257-11.24A11.224,11.224,0,0,0,935.246,4944.11Zm26.265,10.93a20.556,20.556,0,0,1,1.819,8.34v14.48h19.862l26.848-22.82H961.511Zm12.066-44.8a10.54,10.54,0,1,0-10.564-10.54A10.556,10.556,0,0,0,973.577,4910.24Zm-10.155,40.99h20.04v-23.69h3.259v23.69h9.608V4928.3a15.935,15.935,0,0,0-15.941-15.91h-3.937l0.616,0.42a1.377,1.377,0,0,1,.5,1.57l-1.433,3.54,2.519,20.61-4.746,4.28-4.738-4.28,2.535-20.61-1.457-3.54a1.341,1.341,0,0,1,.493-1.57l0.624-.42h-4.6a15.94,15.94,0,0,0-15.941,15.91v16.09a21.077,21.077,0,0,1,8.5,6.84h0.847v-23.69h3.251v23.69Z" transform="translate(-905.515 -4882.58)"/>
</svg>
