<svg xmlns="http://www.w3.org/2000/svg" width="30" height="30" viewBox="0 0 30 30">
  <defs>
    <style>
      .cls-1 {
        fill: #540063;
        fill-rule: evenodd;
      }
    </style>
  </defs>
  <path id="flow_icons02" class="cls-1" d="M1044.41,2941.12a0.537,0.537,0,1,1,0-1.07h1.02v-9.68h-2.03a0.922,0.922,0,0,1-.96-0.89,0.88,0.88,0,0,1,.6-0.83l10.93-5.04a0.963,0.963,0,0,1,.86,0l11,5.07a0.861,0.861,0,0,1,.43,1.2,0.978,0.978,0,0,1-.86.49h-2.03v9.68h1.02a0.537,0.537,0,1,1,0,1.07h-19.98Zm2.96-10.75h0v9.68h3.4v-9.68h-3.4Zm5.32,0h0v9.68h3.41v-9.68h-3.41Zm5.34,0h0v9.68h3.41v-9.68h-3.41Zm3.29-1.78h0l-6.92-3.2-6.92,3.2h13.84Zm-17.92,14.83h0a0.893,0.893,0,1,1,0-1.78h22a0.893,0.893,0,1,1,0,1.78h-22Z" transform="translate(-1039.41 -2918.455)"/>
</svg>
