<svg xmlns="http://www.w3.org/2000/svg" width="30" height="30" viewBox="0 0 30 30">
  <defs>
    <style>
      .cls-1 {
        fill: #540063;
        fill-rule: evenodd;
      }
    </style>
  </defs>
  <path id="flow_icons03" class="cls-1" d="M584.943,2985.4a12.4,12.4,0,0,1,8.822,3.67,12.615,12.615,0,0,1,0,17.76,12.417,12.417,0,0,1-17.646,0,12.62,12.62,0,0,1,0-17.76,12.411,12.411,0,0,1,8.824-3.67h0Zm-0.575,23.16h0v-4.07a10.561,10.561,0,0,0-3.241.68c-0.145.05-.289,0.11-0.43,0.17,0.087,0.18.176,0.36,0.27,0.53a6.794,6.794,0,0,0,2.234,2.56,11.075,11.075,0,0,0,1.167.13h0Zm8.039-18.12h0c-0.084-.09-0.173-0.17-0.259-0.26a12.117,12.117,0,0,1-1.469.95,19.091,19.091,0,0,1,1.168,6.24h3.638a10.6,10.6,0,0,0-3.078-6.93h0Zm-1.17-1.02h0a10.293,10.293,0,0,0-2.15-1.24,10.145,10.145,0,0,1,.837,1.3c0.106,0.19.205,0.38,0.3,0.58a10.257,10.257,0,0,0,1.012-.64h0Zm-4.551-1.95h0a11.236,11.236,0,0,0-1.166-.13v4.07a10.835,10.835,0,0,0,3.239-.67c0.148-.06.289-0.11,0.432-0.17-0.089-.19-0.178-0.36-0.274-0.53a6.716,6.716,0,0,0-2.231-2.57h0Zm-2.318-.13h0a11.075,11.075,0,0,0-1.167.13,6.754,6.754,0,0,0-2.234,2.57c-0.094.17-.183,0.34-0.27,0.53,0.141,0.06.285,0.11,0.428,0.17a10.842,10.842,0,0,0,3.243.67v-4.07h0Zm-3.572.84h0a10.389,10.389,0,0,0-2.149,1.24,10.778,10.778,0,0,0,1.014.64c0.1-.2.2-0.39,0.3-0.58a10.838,10.838,0,0,1,.837-1.3h0Zm-3.058,2h0c-0.089.09-.175,0.17-0.259,0.26a10.6,10.6,0,0,0-3.078,6.93h3.638a19.091,19.091,0,0,1,1.168-6.24,11.963,11.963,0,0,1-1.469-.95h0Zm-3.337,8.35h0a10.6,10.6,0,0,0,3.078,6.93l0.259,0.26a12.121,12.121,0,0,1,1.469-.94,19.2,19.2,0,0,1-1.168-6.25H574.4Zm4.246,7.95h0a11.42,11.42,0,0,0,2.149,1.25,10.981,10.981,0,0,1-.837-1.31c-0.1-.19-0.2-0.38-0.3-0.58-0.348.2-.686,0.41-1.014,0.64h0Zm6.873,2.08h0a11.145,11.145,0,0,0,1.166-.13,6.754,6.754,0,0,0,2.231-2.56c0.1-.17.185-0.35,0.271-0.53-0.14-.06-0.283-0.12-0.429-0.17a10.543,10.543,0,0,0-3.239-.68v4.07h0Zm3.567-.83h0a11.327,11.327,0,0,0,2.153-1.25c-0.329-.23-0.665-0.44-1.015-0.64-0.1.2-.2,0.39-0.3,0.58a10.061,10.061,0,0,1-.837,1.31h0Zm3.061-2.01h0l0.259-.26a10.6,10.6,0,0,0,3.078-6.93h-3.638a19.2,19.2,0,0,1-1.168,6.25,12.043,12.043,0,0,1,1.469.94h0Zm-2.508-14.09h0c-0.158.06-.316,0.13-0.478,0.19a11.993,11.993,0,0,1-3.642.75v4.8h5.174a17.945,17.945,0,0,0-1.054-5.74h0Zm-5.272.94h0a11.944,11.944,0,0,1-3.643-.75c-0.161-.06-0.319-0.13-0.479-0.19a18.028,18.028,0,0,0-1.054,5.74h5.176v-4.8h0Zm0,10.76h0v-4.8h-5.176a18.06,18.06,0,0,0,1.057,5.75c0.157-.07.315-0.14,0.476-0.2a11.944,11.944,0,0,1,3.643-.75h0Zm1.152,0h0a11.918,11.918,0,0,1,3.639.75c0.165,0.06.323,0.13,0.479,0.2a18.088,18.088,0,0,0,1.056-5.75H585.52v4.8h0Z" transform="translate(-569.938 -2982.955)"/>
</svg>
