<svg xmlns="http://www.w3.org/2000/svg" width="30" height="30" viewBox="0 0 30 30">
  <defs>
    <style>
      .cls-1 {
        fill: #540063;
        fill-rule: evenodd;
      }
    </style>
  </defs>
  <path id="flow_icons01" class="cls-1" d="M585.427,2927.92h3.119a0.56,0.56,0,1,0,0-1.12h-3.119a0.56,0.56,0,1,0,0,1.12h0Zm-14.342,4.46h3.12a0.568,0.568,0,0,0,.564-0.56,0.561,0.561,0,0,0-.564-0.56h-3.12a0.563,0.563,0,0,0-.566.56,0.569,0.569,0,0,0,.566.56h0Zm14.342,0h3.119a0.568,0.568,0,0,0,.565-0.56,0.561,0.561,0,0,0-.565-0.56h-3.119a0.564,0.564,0,0,0-.567.56,0.57,0.57,0,0,0,.567.56h0Zm0-8.92h3.119a0.56,0.56,0,1,0,0-1.12h-3.119a0.56,0.56,0,1,0,0,1.12h0Zm-5.841,0h3.119a0.56,0.56,0,1,0,0-1.12h-3.119a0.56,0.56,0,1,0,0,1.12h0Zm11.36-5.64H577.181a0.938,0.938,0,0,0-.94.93v8.19h-7.522a0.939,0.939,0,0,0-.942.93v13.23a0.941,0.941,0,0,0,.942.94h22.227a0.94,0.94,0,0,0,.942-0.94v-22.35a0.938,0.938,0,0,0-.942-0.93h0Zm-14.705,22.36h-6.58V2928.8h6.58v11.38h0Zm13.763,0H578.123v-20.5H590v20.5h0Zm-10.418-3.35h3.119a0.555,0.555,0,1,0,0-1.11h-3.119a0.555,0.555,0,1,0,0,1.11h0Zm5.841,0h3.119a0.555,0.555,0,1,0,0-1.11h-3.119a0.555,0.555,0,1,0,0,1.11h0Zm-5.841-4.45h3.119a0.567,0.567,0,0,0,.564-0.56,0.561,0.561,0,0,0-.564-0.56h-3.119a0.564,0.564,0,0,0-.567.56,0.57,0.57,0,0,0,.567.56h0Zm0-4.46h3.119a0.56,0.56,0,1,0,0-1.12h-3.119a0.56,0.56,0,1,0,0,1.12h0Zm-8.5,8.91h3.12a0.555,0.555,0,1,0,0-1.11h-3.12a0.555,0.555,0,1,0,0,1.11h0Z" transform="translate(-564.828 -2914.92)"/>
</svg>
