<svg xmlns="http://www.w3.org/2000/svg" width="34.06" height="44.09" viewBox="0 0 34.06 44.09">
  <defs>
    <style>
      .cls-1 {
        fill: #fff;
        fill-rule: evenodd;
      }
    </style>
  </defs>
  <path id="シェイプ_3" data-name="シェイプ 3" class="cls-1" d="M1697.78,2774.67h-17.42a0.969,0.969,0,0,0-.9,1.03,0.956,0.956,0,0,0,.9,1.01h17.42a0.955,0.955,0,0,0,.89-1.01,0.968,0.968,0,0,0-.89-1.03h0Zm7.88-18.95h0l-10.83-12.27a1.41,1.41,0,0,0-1.06-.5h-17.73a3.8,3.8,0,0,0-2.84,1.33,4.9,4.9,0,0,0-1.17,3.22v35.02a4.9,4.9,0,0,0,1.17,3.22v-0.01l0.01,0.01a3.792,3.792,0,0,0,2.83,1.33h26.05a3.819,3.819,0,0,0,2.8-1.3l0.03-.03v-0.01a4.893,4.893,0,0,0,1.17-3.21v-25.6a1.823,1.823,0,0,0-.43-1.2h0Zm-10.99-7.65h0l6.91,7.84h-5.3a1.531,1.531,0,0,1-1.14-.54l-0.04-.05a1.963,1.963,0,0,1-.43-1.24v-6.01h0Zm8.43,34.45h0a1.259,1.259,0,0,1-.29.82h0a0.974,0.974,0,0,1-.72.33h-26.05a0.978,0.978,0,0,1-.72-0.33h0a1.215,1.215,0,0,1-.3-0.82V2747.5a1.171,1.171,0,0,1,.3-0.81,0.968,0.968,0,0,1,.72-0.34h16.83v7.73a4.091,4.091,0,0,0,.95,2.66l0.06,0.06a3.2,3.2,0,0,0,2.4,1.14h6.82v24.58h0Zm-23.64-21.15h0a0.963,0.963,0,0,0,.9,1.01h17.42a1.024,1.024,0,0,0,0-2.03h-17.42a0.96,0.96,0,0,0-.9,1.02h0Zm18.32,6.14h-17.42a1.028,1.028,0,0,0,0,2.04h17.42a1.029,1.029,0,0,0,0-2.04h0Z" transform="translate(-1672.03 -2742.97)"/>
</svg>
