<svg xmlns="http://www.w3.org/2000/svg" width="33.03" height="30.16" viewBox="0 0 33.03 30.16">
  <defs>
    <style>
      .cls-1 {
        fill: #fc0;
        fill-rule: evenodd;
      }
    </style>
  </defs>
  <path id="シェイプ_2" data-name="シェイプ 2" class="cls-1" d="M1062.59,1365.94l-1.91-1.91,1.91-1.92,1.91,1.92Zm-1.31-13.41a9.845,9.845,0,0,1,1.68.68,13.734,13.734,0,0,1,1.56.94,12.01,12.01,0,0,1,1.44,1.14,12.673,12.673,0,0,1,1.3,1.34,11.814,11.814,0,0,1,1.98,3.28l0.18,0.45c0.05,0.16.1,0.32,0.15,0.47l0.07,0.24,0.06,0.24c0.04,0.16.08,0.32,0.11,0.48a8.15,8.15,0,0,1,.15.99c0.02,0.16.04,0.33,0.05,0.49l0.02,0.5a24.046,24.046,0,0,1-.03.98c-0.03.33-.05,0.66-0.11,0.98a4,4,0,0,1-.08.48l-0.1.48c-0.04.16-.09,0.31-0.13,0.47a3.5,3.5,0,0,1-.14.46,12.822,12.822,0,0,1-1.73,3.4,12.636,12.636,0,0,1-1.19,1.44,14.48,14.48,0,0,1-1.34,1.26,13.814,13.814,0,0,1-1.49,1.05,9.079,9.079,0,0,1-1.62.81l-0.06-.08c0.74-.94,1.42-1.87,2.03-2.82a22.742,22.742,0,0,0,1.6-2.88c0.06-.12.11-0.25,0.16-0.37s0.11-.24.16-0.37l0.15-.36c0.04-.13.08-0.25,0.13-0.38a13.337,13.337,0,0,0,.44-1.49,13.078,13.078,0,0,0,.26-1.5c0.04-.26.04-0.51,0.07-0.76,0-.13,0-0.25.01-0.38s0.01-.25,0-0.38a12.126,12.126,0,0,0-1.7-5.82,23.332,23.332,0,0,0-1.83-2.74c-0.35-.45-0.71-0.89-1.08-1.33s-0.77-.87-1.18-1.31Zm-4.92,1.14c-0.42-2.44-.68-3.99-0.77-4.57v-0.25a1.131,1.131,0,0,0-.02.12,0.56,0.56,0,0,1-.02-0.12v0.25c-0.1.58-.35,2.13-0.77,4.57-0.55,3.16-1.67,3.47-1.67,3.47a1.038,1.038,0,0,0,.98.48c0.75,0,1.15,2.34,1.15,2.34l0.31,0.63v0.08l0.02-.04,0.02,0.04v-0.08l0.3-.63s0.41-2.34,1.16-2.34a1.013,1.013,0,0,0,.97-0.48S1056.91,1356.83,1056.36,1353.67Zm-1.58,20.5c0.42,2.45.67,4,.77,4.58V1379a0.689,0.689,0,0,1,.02-0.13,1.114,1.114,0,0,0,.02.13v-0.25c0.09-.58.35-2.13,0.77-4.58,0.55-3.16,1.66-3.46,1.66-3.46a1.013,1.013,0,0,0-.97-0.48c-0.75,0-1.16-2.34-1.16-2.34l-0.3-.63v-0.09l-0.02.04-0.02-.04v0.09l-0.31.63s-0.4,2.34-1.15,2.34a1.038,1.038,0,0,0-.98.48S1054.23,1371.01,1054.78,1374.17Zm4.69-10.05a4.894,4.894,0,0,0-3.98-2.17c-2.66,0-18.49,1.9-18.49,1.9s15.48,2.04,18.41,2.04A4.736,4.736,0,0,0,1059.47,1364.12Z" transform="translate(-1037 -1348.84)"/>
</svg>
