<svg xmlns="http://www.w3.org/2000/svg" width="33" height="30" viewBox="0 0 33 30">
  <defs>
    <style>
      .cls-1 {
        fill: #fc0;
        fill-rule: evenodd;
      }
    </style>
  </defs>
  <path id="シェイプ_2_のコピー" data-name="シェイプ 2 のコピー" class="cls-1" d="M1525.43,1361.99l1.91,1.9-1.91,1.91-1.91-1.91Zm1.31,13.35a9.423,9.423,0,0,1-1.68-.69,12.976,12.976,0,0,1-1.55-.93,14.131,14.131,0,0,1-1.45-1.13,12.583,12.583,0,0,1-1.29-1.34,11.706,11.706,0,0,1-1.98-3.26l-0.18-.45c-0.05-.16-0.1-0.31-0.15-0.47l-0.07-.23-0.06-.24c-0.04-.16-0.08-0.32-0.11-0.48-0.06-.33-0.12-0.65-0.15-0.98-0.02-.16-0.04-0.33-0.05-0.49l-0.02-.5a24.046,24.046,0,0,1,.03-0.98c0.03-.32.05-0.65,0.11-0.97,0.02-.16.05-0.32,0.08-0.48l0.1-.47c0.04-.16.09-0.31,0.13-0.47a3.5,3.5,0,0,1,.14-0.46,12.551,12.551,0,0,1,1.73-3.38,13.7,13.7,0,0,1,1.18-1.44,15.86,15.86,0,0,1,1.35-1.25,12.811,12.811,0,0,1,1.49-1.04,8.756,8.756,0,0,1,1.62-.81l0.05,0.09c-0.73.93-1.41,1.85-2.02,2.79a22.771,22.771,0,0,0-1.6,2.87c-0.06.12-.11,0.25-0.17,0.37s-0.11.24-.15,0.36l-0.15.37c-0.04.12-.09,0.25-0.13,0.37a13.827,13.827,0,0,0-.44,1.48,13.078,13.078,0,0,0-.26,1.5c-0.04.25-.05,0.5-0.07,0.76-0.01.12,0,.25-0.01,0.37s-0.01.25,0,.38a12.015,12.015,0,0,0,1.7,5.79,21.231,21.231,0,0,0,1.83,2.72c0.34,0.45.7,0.89,1.08,1.33s0.76,0.87,1.17,1.3Zm4.92-1.14c0.42,2.43.68,3.97,0.77,4.54V1379s0.01-.05.02-0.13c0.01,0.08.02,0.13,0.02,0.13v-0.26c0.09-.57.35-2.11,0.77-4.54,0.55-3.15,1.66-3.45,1.66-3.45a1.013,1.013,0,0,0-.97-0.48c-0.75,0-1.16-2.33-1.16-2.33l-0.3-.63v-0.08l-0.02.04-0.02-.04v0.08l-0.3.63s-0.41,2.33-1.16,2.33a1.013,1.013,0,0,0-.97.48S1531.11,1371.05,1531.66,1374.2Zm1.58-20.4c-0.42-2.43-.68-3.98-0.77-4.55V1349a0.067,0.067,0,1,1-.04,0v0.25c-0.09.57-.35,2.12-0.77,4.55-0.55,3.15-1.66,3.45-1.66,3.45a1.016,1.016,0,0,0,.97.47c0.75,0,1.16,2.34,1.16,2.34l0.3,0.62v0.09l0.02-.05,0.02,0.05v-0.09l0.3-.62s0.41-2.34,1.16-2.34a1.016,1.016,0,0,0,.97-0.47S1533.79,1356.95,1533.24,1353.8Zm-4.69,10.01a4.9,4.9,0,0,0,3.98,2.15c2.66,0,18.47-1.89,18.47-1.89s-15.47-2.03-18.4-2.03A4.726,4.726,0,0,0,1528.55,1363.81Z" transform="translate(-1518 -1349)"/>
</svg>
