<svg xmlns="http://www.w3.org/2000/svg" width="110" height="110" viewBox="0 0 110 110">
  <defs>
    <style>
      .cls-1 {
        fill: #fff;
        fill-rule: evenodd;
      }
    </style>
  </defs>
  <path id="tour_summary_icon01" class="cls-1" d="M859.163,1878.23a5.567,5.567,0,0,0-2.939-1.68c-0.113-1.5-.284-2.95-0.509-4.38-0.171-1.4-.452-2.78-0.681-4.16-0.168-1.03-.339-2.05-0.507-3.06-0.113-1-.283-1.99-0.4-2.94a36.165,36.165,0,0,1,.113-9.26,32.448,32.448,0,0,1,2.771-8.99,2.759,2.759,0,0,0,.226-1.17,2.393,2.393,0,0,0-.339-1.2,3.158,3.158,0,0,0-1.923-1.4,3.687,3.687,0,0,0-2.487.17c-0.681.29-1.416,0.57-2.207,0.82-0.736.24-1.584,0.47-2.49,0.68a63.637,63.637,0,0,1-20.7,1.45c-6.053-.57-12.5-1.95-18.947-1.95-6.391,0-12.84,1.38-18.89,1.95a61.928,61.928,0,0,1-10.465.12,65.5,65.5,0,0,1-10.292-1.57c-0.848-.21-1.7-0.44-2.432-0.68-0.793-.25-1.529-0.53-2.207-0.82a3.688,3.688,0,0,0-2.487-.17,3.141,3.141,0,0,0-1.923,1.4,2.367,2.367,0,0,0-.342,1.2,2.762,2.762,0,0,0,.229,1.17,32.549,32.549,0,0,1,2.771,8.99,33.769,33.769,0,0,1,.055,9.26,27.1,27.1,0,0,1-.4,2.94c-0.113,1.01-.339,2.03-0.452,3.06-0.226,1.38-.51,2.76-0.678,4.16-0.225,1.43-.4,2.88-0.509,4.38a5.576,5.576,0,0,0-2.942,1.68,4.317,4.317,0,0,0-1.188,2.92v29.92a4.361,4.361,0,0,0,1.642,3.35,5.949,5.949,0,0,0,3.9,1.39h7.578v6.33a3.148,3.148,0,0,0,3.339,2.84h12.33a3.089,3.089,0,0,0,3.278-2.84v-6.33h40.214v6.33a3.092,3.092,0,0,0,3.281,2.84h12.33a3.145,3.145,0,0,0,3.336-2.84v-6.33h7.636a5.909,5.909,0,0,0,3.846-1.39,4.358,4.358,0,0,0,1.639-3.35v-29.92A4.317,4.317,0,0,0,859.163,1878.23Zm-77.711,41.06h-5.71v-3.48h5.71v3.48Zm59.161,0H834.9v-3.48h5.713v3.48Zm8.711-12.98H767.031v-20.42h82.293v20.42Zm-13.857-34.11a0.559,0.559,0,0,1,.055.11,0.129,0.129,0,0,1,.058.13v3.33a0.136,0.136,0,0,1-.058.14c0,0.05-.055.08-0.055,0.12-0.058.02-.113,0.06-0.171,0.08a0.392,0.392,0,0,1-.112.02H781.171a0.5,0.5,0,0,1-.17-0.02,0.2,0.2,0,0,0-.113-0.08c0-.04-0.058-0.07-0.058-0.12a0.14,0.14,0,0,1-.055-0.14v-3.33a0.132,0.132,0,0,1,.055-0.13,0.548,0.548,0,0,1,.058-0.11l0.055-.03v-0.02a0.292,0.292,0,0,1,.116-0.05,0.281,0.281,0,0,0,.112-0.03h54.013a0.269,0.269,0,0,0,.112.03,1.123,1.123,0,0,0,.113.05v0.02Zm6.672,4.2v-0.31l0.058-.32v-3.33a5.4,5.4,0,0,0-.565-2.34,6.885,6.885,0,0,0-1.529-1.93l-0.225-.18a7.133,7.133,0,0,0-2.149-1.17,7.6,7.6,0,0,0-2.545-.44H781.171a7.577,7.577,0,0,0-2.545.44,7.061,7.061,0,0,0-2.149,1.17l-0.228.18a6.929,6.929,0,0,0-1.526,1.93,5.4,5.4,0,0,0-.565,2.34v3.33l0.055,0.32v0.31h-7.465c0.113-1.32.283-2.6,0.509-3.87,0.171-1.26.339-2.51,0.565-3.73,0.171-1.03.339-2.03,0.51-3.06,0.112-1.03.283-2.08,0.4-3.15a44.128,44.128,0,0,0,.226-7.68,31.843,31.843,0,0,0-1.3-7.57,73.055,73.055,0,0,0,22.338,1.44c5.771-.58,11.991-1.93,18.157-1.93,6.22,0,12.443,1.35,18.211,1.93a70.514,70.514,0,0,0,11.256.13,73.645,73.645,0,0,0,11.085-1.57,34.814,34.814,0,0,0-1.3,7.57,43.545,43.545,0,0,0,.226,7.68c0.113,1.07.281,2.12,0.4,3.15,0.168,1.03.339,2.03,0.507,3.06,0.226,1.22.4,2.47,0.623,3.73,0.171,1.27.339,2.55,0.452,3.87h-7.466Z" transform="translate(-753.172 -1827.405)"/>
</svg>
