<svg xmlns="http://www.w3.org/2000/svg" width="110" height="110" viewBox="0 0 110 110">
  <defs>
    <style>
      .cls-1 {
        fill: #fff;
        fill-rule: evenodd;
      }
    </style>
  </defs>
  <path id="tour_summary_icon03" class="cls-1" d="M847.6,1883.28a22.335,22.335,0,0,0,4.843-13.92c0-12.47-10.432-22.68-23.1-22.68a23.3,23.3,0,0,0-13.994,4.65,25.968,25.968,0,0,0-2.649,2.32,24.6,24.6,0,0,0-4.926-6.85,25.374,25.374,0,0,0-35.394,0,24.462,24.462,0,0,0-7.369,17.39,24.167,24.167,0,0,0,5.506,15.38c-7.452,7.09-14.489,13.85-14.489,25.7v8.14a3.981,3.981,0,0,0,4.014,3.96h9.15v2.65a3.982,3.982,0,0,0,4.015,3.93v0.02h71.451a4,4,0,0,0,4.017-3.95v-2.04h7.948a4,4,0,0,0,4.014-3.96v-7.37c0-10.95-6.042-16.72-13.039-23.37h0Zm-27.363-25.68h0a15.12,15.12,0,0,1,9.108-3.01,14.96,14.96,0,0,1,15.067,14.77,14.466,14.466,0,0,1-4.43,10.44,15.185,15.185,0,0,1-9.107,4.27,19.37,19.37,0,0,0,.581-4.67A19.149,19.149,0,0,0,816.92,1861a14.966,14.966,0,0,1,3.313-3.4h0Zm-8.114,10.72h0a11.233,11.233,0,0,1,11.3,11.08,10.926,10.926,0,0,1-3.313,7.81,11.392,11.392,0,0,1-7.989,3.25,11.072,11.072,0,1,1,0-22.14h0Zm-34.071-15.92h0a17.22,17.22,0,0,1,24.052-.01,16.666,16.666,0,0,1,4.678,8.76,19.174,19.174,0,0,0-13.993,18.25c0,0.42.042,0.85,0.083,1.28a17.715,17.715,0,0,1-2.773.2,17.1,17.1,0,0,1-12.047-4.9,16.479,16.479,0,0,1,0-23.58h0Zm-0.827,63.68h0v-13.81a2.394,2.394,0,0,0-2.4-2.38,2.43,2.43,0,0,0-2.442,2.38v7.19h-8.321v-4.19c0-8.57,5.92-14.21,12.128-20.14l0.29-.28a25.512,25.512,0,0,0,18.05,3.53l0.538-.09a21.779,21.779,0,0,0,1.365,2.18c-5.3,5.08-10.184,10.13-10.184,18.82v5.92a5.83,5.83,0,0,0,.085.87h-9.108Zm52.738-4.81h-4.718v-4.17a2.422,2.422,0,0,0-4.843,0v8.98H803.881v-8.98a2.422,2.422,0,0,0-4.843,0v4.17h-4.761v-1.98c0-5.62,3.889-9.5,8.114-13.51a20.908,20.908,0,0,0,2.441,1.18l0.043,0.01,0.04,0.03a19.883,19.883,0,0,0,7.2,1.36,19.34,19.34,0,0,0,9.727-2.58c4.389,4.14,8.113,7.76,8.113,13.51v1.98h0Zm22.605-1.2h-7.079v-6.15a2.422,2.422,0,0,0-4.843,0v12.16h-2.734a3.011,3.011,0,0,0,.125-0.87v-5.92c0-7.96-3.809-12.57-8.57-17.25a23.389,23.389,0,0,0,12.171-3.47l0.333,0.34v0c5.712,5.41,10.6,10.07,10.6,17.74v3.42h0Z" transform="translate(-753.328 -1826.78)"/>
</svg>
