<svg xmlns="http://www.w3.org/2000/svg" width="110" height="110" viewBox="0 0 110 110">
  <defs>
    <style>
      .cls-1 {
        fill: #fff;
        fill-rule: evenodd;
      }
    </style>
  </defs>
  <path id="tour_summary_icon02" class="cls-1" d="M842.6,1841.04l-0.079.08-14.68,14.67v-0.01a3.758,3.758,0,0,1-3.1,1.08l-48.947-5.71-3.258,3.27,34.776,14.02a3.56,3.56,0,0,1,1.532.95,3.807,3.807,0,0,1,0,5.39l-16.054,16.07v-0.01a3.925,3.925,0,0,1-3.257,1.08l-16.84-2.5-4.278,4.25,17.506,8.64h0a3.782,3.782,0,0,1,1.767,1.77l8.125,16.88,4.2-4.22-2.434-16.61a3.742,3.742,0,0,1,1.021-3.47l16.094-16.07v0.01a3.863,3.863,0,0,1,1.256-.83,3.786,3.786,0,0,1,4.946,2.1l14.13,35.03,3.3-3.29-5.691-48.68a3.7,3.7,0,0,1,1.059-3.33l14.759-14.75c3.768-3.76-1.963-9.57-5.77-5.87l-0.078.06h0Zm-5.457-5.32h0l0.079-.08,0.078-.08c10.951-10.77,27.163,6.07,16.526,16.7l-13.463,13.43,5.73,48.89a3.628,3.628,0,0,1-1.1,3.12h0.041l-8.676,8.66a3.864,3.864,0,0,1-6.359-1.57l-14.012-34.73-10.637,10.64,2.472,16.82a3.8,3.8,0,0,1-1.216,3.37l-9.225,9.24a3.8,3.8,0,0,1-5.378,0,4.235,4.235,0,0,1-.824-1.26l-9.773-20.32-21.118-10.4a3.788,3.788,0,0,1-.9-6.19l9.263-9.27a3.827,3.827,0,0,1,3.257-1.07h0l16.84,2.47,10.637-10.63-35.053-14.13a3.769,3.769,0,0,1-1.256-6.22h0l8.635-8.66a3.8,3.8,0,0,1,3.339-1.06l48.711,5.7,13.384-13.37h0Z" transform="translate(-752.735 -1826.67)"/>
</svg>
