<?xml version="1.0" encoding="UTF-8"?>
<svg id="_レイヤー_2" data-name="レイヤー_2" xmlns="http://www.w3.org/2000/svg" viewBox="0 0 500.4 152.13">
  <g id="_レイヤー_1-2" data-name="レイヤー_1">
    <g>
      <path d="M497.34,0s-13.44,7.25-32.17,15.56c-2.07.92-4.07,1.66-6.06,2.27,3.04,4.12,6.3,8.66,9.36,13.13,0,0,0,0,0,0,6.48-3.34,12.22-5.53,23.75-14.69,14.67-11.67,5.13-16.26,5.13-16.26Z"/>
      <path d="M341.9,102.08c-.09-1.24-.19-2.5-.29-3.76-.03-.31-.05-.62-.07-.94-.1-1.22-.21-2.45-.32-3.69-.03-.38-.06-.75-.1-1.12-.11-1.17-.23-2.36-.35-3.55-.05-.45-.09-.89-.13-1.35-.12-1.16-.25-2.32-.38-3.49-.03-.27-.06-.53-.09-.79-3.72.67-8.28.5-13.06-1.9-9.55-4.77-16.74-8.72-30.76-6.01-16.44,3.18-47.44,11.14-68.47,14.67-18.25,3.07-32.5,6.93-37.57,7.9-.41,5.64-.96,13.02-.96,13.02l-5.89,13.2s-9.07,3.3-9.43,3.3-39.72,4.48-39.72,4.48l-25.57-3.18-29.82-1.77-1.89-.83-17.8-1.53-3.3-3.06,22.27,2.95h6.01l9.07-1.41,12.02,1.06,3.77-.12-1.65-3.54,5.66,3.54,20.62,2.71,26.05-.35,9.55-3.54,9.43-3.42,6.25-17.8-4.01-20.51-9.55-9.78-25.1,1.53s-23.1,6.01-24.75,6.36c-1.65.35-35.36,3.77-35.36,3.77h-12.49l-3.3-1.18,41.6-5.19,16.03-2.83,3.82-.89c-14.94.78-28.77,1.12-38.11,1.12-24.16,0-33.12,10.72-42.78,19.21-9.66,8.49-20.74-2.59-20.74-2.59,0,0,6.01,6.6-4.48,17.68-10.49,11.08-21.92-6.6-21.92-6.6,0,0-8.72,9.31.12,16.03,8.84,6.72,14.02,4.01,20.51,1.53,6.48-2.47,12.61-2.71,12.61-2.71,0,0-6.36,6.72-3.18,9.66,3.18,2.95,38.47,22.12,98.29,25.1,92.04,4.6,146.87-17.57,146.87-17.57l49.85-19.09,13.24-8.06.06-.36c-.08-1.14-.16-2.31-.24-3.47-.02-.29-.04-.57-.06-.85Z"/>
      <path d="M185.06,78.94c5.21.11,18.31-1.13,50.13-9.47,47.91-12.55,63.11-13.61,62.93-23.16-.09-4.7,1.29-9.58,4.84-14.25l-1.64.03-68.41-1.59-6.36,5.3-3.18,15.38,1.06,7.95s-.67-.16-26.48,6.32c-5.47,1.37-12.21,2.55-19.67,3.56l4.94,5.86s.78,1.71,1.84,4.05Z"/>
    </g>
  </g>
</svg>