<?xml version="1.0" encoding="UTF-8"?>
<svg id="_レイヤー_1" data-name="レイヤー_1" xmlns="http://www.w3.org/2000/svg" viewBox="0 0 854 360">
  <defs>
    <style>
      .cls-1 {
        fill: #130000;
      }
    </style>
  </defs>
  <path class="cls-1" d="M811.29,128.52l-18.62,2.83-4.71,3.77-3.3,2.83h-24.35l3.72,4.07s4.11,5.2,9.45,12.36c7.83-1.94,15.33-4.55,21.78-7.14,1.06-1.37,2.41-2.68,4.18-3.86.29-.19.59-.4.89-.61.09-.07.19-.14.29-.2.21-.15.43-.31.65-.47.11-.08.22-.16.33-.24.23-.17.46-.35.7-.52.09-.07.18-.14.27-.21.32-.25.64-.5.97-.76.08-.06.16-.13.24-.19.25-.2.51-.41.77-.62.12-.1.25-.2.37-.3.22-.18.45-.37.67-.55.12-.1.24-.2.36-.3.27-.23.54-.45.81-.68.07-.06.14-.12.21-.18.34-.29.68-.58,1.03-.88.09-.08.17-.15.26-.23.27-.23.53-.46.79-.69.1-.08.19-.17.29-.25.28-.24.55-.49.83-.73.06-.05.12-.11.18-.16,2.18-1.94,4.25-3.84,5.95-5.44l-5-.65Z"/>
  <path class="cls-1" d="M615.1,156.55l-12.14,10.95c4.67-.32,11.33-.69,21.02-1.15.55-.03,1.13-.05,1.7-.07,3.34-2.67,7.59-5.21,12.91-7.53,1.22-.53,2.4-1.01,3.56-1.47-2.57-8.03-5.14-15.67-7.29-21.94l-19.76,21.21Z"/>
</svg>